# xmcd CD database file
#
# Track frame offsets:
#	150
#	16589
#	37962
#	53356
#	69361
#	84848
#	105787
#	122373
#	139728
#	156034
#	171305
#	187284
#	207595
#
# Disc length: 3016 seconds
#
# Revision: 0
# Processed by: cddbd v1.5.2PL0 Copyright (c) Steve Scherf et al.
# Submitted via: CDex 1.51
#
DISCID=990bc60d
DTITLE=Die Amigos - Die schönsten Liebeslieder CD 2
DYEAR=2007
DGENRE=Volkstümliche Schlager
TTITLE0=Wenn die Sehnsucht brennt
TTITLE1=Julia my love
TTITLE2=Schenk mir bitte keine Rosen
TTITLE3=Gib mir mein Herz zurück
TTITLE4=Träume einer Nacht
TTITLE5=Santa Monica
TTITLE6=Ich hab getraeumt
TTITLE7=Zwei Herzen aus Gold
TTITLE8=Unsere Eltern
TTITLE9=Mein Herz hat Sehnsucht
TTITLE10=Zwischen Liebe und Wahnsinn
TTITLE11=Weine nicht um unsere Liebe
TTITLE12=So allein
EXTD=YEAR: 2007
EXTT0=
EXTT1=
EXTT2=
EXTT3=
EXTT4=
EXTT5=
EXTT6=
EXTT7=
EXTT8=
EXTT9=
EXTT10=
EXTT11=
EXTT12=
PLAYORDER=
